<svg xmlns="http://www.w3.org/2000/svg" width="256" height="256" viewBox="0 0 100 100"><rect width="100" height="100" rx="20" fill="#8e7ff7"></rect><path fill="#fff" d="M27.00 77.54L27.00 22.46Q27.00 20.75 28.26 19.63Q29.52 18.50 31.32 18.50L31.32 18.50L71.19 18.50Q71.19 22.28 69.66 24.08Q68.13 25.88 64.89 25.88L64.89 25.88L35.46 25.88L35.46 46.04L60.66 46.04Q60.66 49.82 59.13 51.62Q57.60 53.42 54.45 53.42L54.45 53.42L35.46 53.42L35.46 74.12L66.78 74.12Q69.94 74.12 71.47 75.92Q73.00 77.72 73.00 81.50L73.00 81.50L31.32 81.50Q29.52 81.50 28.26 80.38Q27.00 79.25 27.00 77.54L27.00 77.54Z"></path></svg>